<svg xmlns="http://www.w3.org/2000/svg" viewBox="0 0 500.6 146"><defs><style>.cls-1{fill:#eb0028;}</style></defs><title>TEDx</title><g id="Layer_2" data-name="Layer 2"><g id="Layer_1-2" data-name="Layer 1"><g id="Layer_1-2-2" data-name="Layer 1-2"><path class="cls-1" d="M40.8,37.4H0V0H126.6V37.4H85.8V146H40.9V37.4h-.1Z"/><path class="cls-1" d="M133.5,0H256.4V37.4h-78V55.6h78V90.4h-78v18.2h78V146H133.5V0Z"/><path class="cls-1" d="M263.9,0h73.7c48.6,0,65.8,36,65.8,72.8S379.7,146,328.9,146H264V0h-.1Zm45,108.5h17.6c28,0,32.1-22.7,32.1-36.4s-2.9-34.7-35.3-34.7H309v71.1Z"/><path class="cls-1" d="M467.9,90,454.2,67.2,440.8,90H407.9l31.2-46L409,0h32.9l12.2,21.8L466.6,0h32.9L469.4,44l31.2,46H467.9Z"/></g></g></g></svg>