<?xml version="1.0" encoding="UTF-8"?>
<svg id="Layer_1" xmlns="http://www.w3.org/2000/svg" version="1.1" viewBox="0 0 841.89 177.36">
  <!-- Generator: Adobe Illustrator 30.0.0, SVG Export Plug-In . SVG Version: 2.1.1 Build 123)  -->
  <defs>
    <style>
      .st0 {
        fill: #231f20;
      }
    </style>
  </defs>
  <polygon class="st0" points="324.98 38.86 324.2 38.86 324.2 37.68 324.98 38.86"/>
  <polygon class="st0" points="533.39 134.18 509.04 134.18 495.27 113.85 495.27 134.18 489.59 134.18 489.59 105.47 443.67 37.69 469.44 37.69 489.59 68.09 489.59 37.69 495.27 37.69 495.27 76.66 533.39 134.18"/>
  <polygon class="st0" points="125.98 134.18 101.64 134.18 65.08 80.22 65.08 134.18 59.97 134.18 59.41 133.35 22.27 78.54 22.27 134.18 16.59 134.18 16.59 37.68 16.59 37.68 16.59 37.68 59.41 96.61 59.41 37.68 59.41 37.68 59.41 37.68 125.98 134.18"/>
  <polygon class="st0" points="660.51 134.18 636.17 134.18 599.61 80.22 599.61 134.18 594.5 134.18 593.94 133.35 556.8 78.54 556.8 134.18 551.13 134.18 551.13 37.68 551.13 37.68 551.13 37.68 593.94 96.61 593.94 37.68 593.94 37.68 593.94 37.68 660.51 134.18"/>
  <polygon class="st0" points="59.97 134.18 59.41 134.18 59.41 133.35 59.97 134.18"/>
  <path class="st0" d="M388.56,134.18l-58.69-88-4.89-7.32h-.78v95.32h5.67v-21.32c.89,3.34,3.8,5.93,7.44,6.24,4.67.4,8.78-3.05,9.18-7.72.16-1.89-.31-3.69-1.24-5.18l18.95,27.98h24.36ZM338.77,102.21c-4.14-.36-7.85,2.33-8.9,6.21v-24.92l14.92,22.03c-1.4-1.84-3.54-3.11-6.02-3.32Z"/>
  <polygon class="st0" points="299.58 134.18 275.22 134.18 213.69 43.36 196.16 43.36 196.16 37.68 292.66 37.68 292.66 43.36 239.37 43.36 299.58 134.18"/>
  <polygon class="st0" points="221.94 128.51 221.94 134.18 167.6 134.18 102.22 37.68 166.15 37.68 166.15 43.36 131.74 43.36 188.19 128.51 221.94 128.51"/>
  <g>
    <polygon class="st0" points="456.8 134.18 432.44 134.18 398.11 83.5 392.44 75.13 392.44 37.68 456.8 134.18"/>
    <circle class="st0" cx="419.4" cy="46.16" r="8.48"/>
  </g>
  <g>
    <polygon class="st0" points="729.15 134.18 704.79 134.18 670.46 83.5 664.79 75.13 664.79 37.68 729.15 134.18"/>
    <circle class="st0" cx="691.75" cy="46.16" r="8.48"/>
  </g>
  <circle class="st0" cx="174.38" cy="86.85" r="10.03"/>
  <path class="st0" d="M822.68,85.93c0,17.96-9.82,33.64-24.4,41.92-6.05,3.48-12.92,5.66-20.25,6.18l-46.94-69.29c3.28-6.74,8.12-12.62,14.03-17.11,8.12-6.25,18.29-9.95,29.31-9.95,26.64,0,48.25,21.61,48.25,48.25Z"/>
</svg>