<?xml version="1.0" encoding="UTF-8"?>
<svg id="Layer_1" xmlns="http://www.w3.org/2000/svg" version="1.1" viewBox="0 0 230.87 172.96">
  <!-- Generator: Adobe Illustrator 30.0.0, SVG Export Plug-In . SVG Version: 2.1.1 Build 123)  -->
  <defs>
    <style>
      .st0 {
        fill: #231f20;
      }
    </style>
  </defs>
  <g>
    <polygon class="st0" points="132.77 130.27 108.41 130.27 74.08 79.59 68.41 71.21 68.41 33.77 132.77 130.27"/>
    <polygon class="st0" points="91.04 130.27 66.68 130.27 32.35 79.59 26.67 71.21 26.67 33.77 91.04 130.27"/>
    <circle class="st0" cx="95.37" cy="42.24" r="8.48"/>
  </g>
  <path class="st0" d="M201,94.8c0,17.96-9.82,33.64-24.4,41.92-6.05,3.48-12.92,5.66-20.25,6.18l-46.94-69.29c3.28-6.74,8.12-12.62,14.03-17.11,8.12-6.25,18.29-9.95,29.31-9.95,26.64,0,48.25,21.61,48.25,48.25Z"/>
</svg>